{"title":"The.Possession.Of.Michael.King.2014.BRRip.XviD.AC3-N3kr4","uid":10980431,"size":1447269680,"categoryP":"video","categoryS":"hd___movies","magnet":"?xt=urn:btih:a5a33e708f1892ff0e525ac8c89ef4ecf4055274&amp;dn=The.Possession.Of.Michael.King.2014.BRRip.XviD.AC3-N3kr4&amp;tr=udp%3A%2F%2Ftracker.openbittorrent.com%3A80&amp;tr=udp%3A%2F%2Fopen.demonii.com%3A1337&amp;tr=udp%3A%2F%2Ftracker.coppersurfer.tk%3A6969&amp;tr=udp%3A%2F%2Fexodus.desync.com%3A6969","seeders":1,"leechers":0,"uploader":"Falcon.G13","files":2,"time":1409863401,"description":"The Possession of Michael King (2014)\n\nPlot Summary\n\nShowing one plot summary\n\nMichael King (Shane Johnson), who doesn't believe in God or the Devil. Following the sudden death of his wife, Michael decides to make his next film about the search for the existence of the supernatural, making himself the center of the experiment - allowing demonologists, necromancers, and various practitioners of the occult to try the deepest and darkest spells and rituals they can find on him - in the hopes that when they fail, he'll once and for all have proof that religion, spiritualism, and the paranormal are nothing more than myth. But something does happen. An evil and horrifying force has taken over Michael King. And it will not let him go.\n &lt;a href=&quot;\nhttp://i.imgur.com/rBbLfzo.jpg&quot; rel=&quot;nofollow&quot; target=&quot;_NEW&quot;&gt;\nhttp://i.imgur.com/rBbLfzo.jpg&lt;/a&gt; &lt;a href=&quot;\nhttp://i.imgur.com/XHGZtfz.jpg&quot; rel=&quot;nofollow&quot; target=&quot;_NEW&quot;&gt;\nhttp://i.imgur.com/XHGZtfz.jpg&lt;/a&gt; &lt;a href=&quot;\nhttp://i.imgur.com/F0ylYJT.jpg&quot; rel=&quot;nofollow&quot; target=&quot;_NEW&quot;&gt;\nhttp://i.imgur.com/F0ylYJT.jpg&lt;/a&gt; &lt;a href=&quot;\nhttp://i.imgur.com/0hnqDga.jpg&quot; rel=&quot;nofollow&quot; target=&quot;_NEW&quot;&gt;\nhttp://i.imgur.com/0hnqDga.jpg&lt;/a&gt; &lt;a href=&quot;\nhttp://i.imgur.com/38HKis0.jpg&quot; rel=&quot;nofollow&quot; target=&quot;_NEW&quot;&gt;\nhttp://i.imgur.com/38HKis0.jpg&lt;/a&gt; &lt;a href=&quot;\nhttp://i.imgur.com/Ho1AgsT.jpg&quot; rel=&quot;nofollow&quot; target=&quot;_NEW&quot;&gt;\nhttp://i.imgur.com/Ho1AgsT.jpg&lt;/a&gt; &lt;a href=&quot;\nhttp://i.imgur.com/CzI3STd.jpg&quot; rel=&quot;nofollow&quot; target=&quot;_NEW&quot;&gt;\nhttp://i.imgur.com/CzI3STd.jpg&lt;/a&gt;\n\nGeneral\nComplete name : The.Possession.Of.Michael.King.2014.BRRip.XviD.AC3-N3kr4.avi\nFormat : AVI\nFormat/Info : Audio Video Interleave\nFormat profile : OpenDML\nFile size : 1.35 GiB\nDuration : 1h 23mn\nOverall bit rate : 2 314 Kbps\nWriting application : Lavf55.7.100\n\nVideo\nID : 0\nFormat : MPEG-4 Visual\nFormat profile : Advanced Simple@L1\nFormat settings, BVOP : No\nFormat settings, QPel : No\nFormat settings, GMC : No warppoints\nFormat settings, Matrix : Default (H.263)\nCodec ID : XVID\nCodec ID/Hint : XviD\nDuration : 1h 23mn\nBit rate : 1 661 Kbps\nWidth : 720 pixels\nHeight : 400 pixels\nDisplay aspect ratio : 16:9\nFrame rate : 23.976 fps\nColor space : YUV\nChroma subsampling : 4:2:0\nBit depth : 8 bits\nScan type : Progressive\nCompression mode : Lossy\nBits/(Pixel*Frame) : 0.241\nStream size : 991 MiB (72%)\nWriting library : Lavc55.12.100\n\nAudio\nID : 1\nFormat : AC-3\nFormat/Info : Audio Coding 3\nMode extension : CM (complete main)\nFormat settings, Endianness : Big\nCodec ID : 2000\nDuration : 1h 23mn\nBit rate mode : Constant\nBit rate : 640 Kbps\nChannel(s) : 6 channels\nChannel positions : Front: L C R, Side: L R, LFE\nSampling rate : 48.0 KHz\nBit depth : 16 bits\nCompression mode : Lossy\nStream size : 382 MiB (28%)\nAlignment : Aligned on interleaves\nInterleave, duration : 32 ms (0.77 video frame)\nInterleave, preload duration : 32 ms","torrent":{"xt":"urn:btih:a5a33e708f1892ff0e525ac8c89ef4ecf4055274","amp;dn":"The.Possession.Of.Michael.King.2014.BRRip.XviD.AC3-N3kr4","amp;tr":["udp%3A%2F%2Ftracker.openbittorrent.com%3A80","udp%3A%2F%2Fopen.demonii.com%3A1337","udp%3A%2F%2Ftracker.coppersurfer.tk%3A6969","udp%3A%2F%2Fexodus.desync.com%3A6969"],"infoHash":"a5a33e708f1892ff0e525ac8c89ef4ecf4055274","infoHashBuffer":{"type":"Buffer","data":[165,163,62,112,143,24,146,255,14,82,90,200,200,158,244,236,244,5,82,116]},"announce":[],"urlList":[]}}